<svg xmlns="http://www.w3.org/2000/svg" width="24" height="24" viewBox="0 0 24 24"><defs><style>.a{fill:#fff;}</style></defs><path class="a" d="M21.218,11.062h-.9l0-8.282a2.781,2.781,0,0,0-5.563,0,.938.938,0,1,0,1.875,0,.906.906,0,0,1,1.813,0l0,8.281H2.781A2.784,2.784,0,0,0,0,13.843a.938.938,0,0,0,1.875,0,.906.906,0,1,1,1.812,0v1.864a5.529,5.529,0,0,0,2.7,4.749L5.3,22.644a.938.938,0,1,0,1.678.836l1.171-2.35a5.519,5.519,0,0,0,1.065.1H14.77a5.589,5.589,0,0,0,1.075-.1l1.175,2.351a.938.938,0,1,0,1.677-.838L17.6,20.455A5.519,5.519,0,0,0,20.3,15.688c.008-.9,0-.853.019-1.971a.908.908,0,0,1,.9-.781h.006a.907.907,0,0,1,.906.906.938.938,0,1,0,1.875,0,2.784,2.784,0,0,0-2.781-2.781Zm-2.8,4.621v.009a3.65,3.65,0,0,1-3.652,3.667H9.213a3.656,3.656,0,0,1-3.652-3.652,9.289,9.289,0,0,0-.152-2.77H18.441c0,.535-.015,2.212-.019,2.746Zm0,0" transform="translate(0 0)"/></svg>