<svg xmlns="http://www.w3.org/2000/svg" width="24" height="18.471" viewBox="0 0 24 18.471"><defs><style>.a{fill:#fff;}</style></defs><path class="a" d="M22.156,9.274V1a.938.938,0,0,0-1.875,0V2.715a13.98,13.98,0,0,0-16.563,0V.938a.937.937,0,0,0-1.875,0V9.274A2.347,2.347,0,0,0,0,11.563v4.125a.937.937,0,0,0,.938.938H2.766v.906a.938.938,0,0,0,1.875,0v-.906H19.359v.906a.938.938,0,0,0,1.875,0v-.906h1.828A.937.937,0,0,0,24,15.688V11.563a2.347,2.347,0,0,0-1.844-2.29ZM20.281,5.154V9.219H16.625V6.47a.937.937,0,0,0-.937-.938H8.312a.937.937,0,0,0-.937.938v2.75H3.719V5.154A12.094,12.094,0,0,1,20.281,5.154ZM9.25,9.22V7.407h5.5V9.22Zm12.875,5.531H1.875V11.563a.469.469,0,0,1,.469-.469H21.656a.469.469,0,0,1,.469.469Zm0,0" transform="translate(0 0.001)"/></svg>