<svg xmlns="http://www.w3.org/2000/svg" xmlns:xlink="http://www.w3.org/1999/xlink" width="207.254" height="51" viewBox="0 0 207.254 51">
  <defs>
    <linearGradient id="linear-gradient" x1="1" y1="1" x2="-0.33" y2="-0.35" gradientUnits="objectBoundingBox">
      <stop offset="0" stop-color="#e1aa79"/>
      <stop offset="1" stop-color="#71553d"/>
    </linearGradient>
  </defs>
  <g id="belogour-properties-logo" transform="translate(-390.5 -14.5)">
    <path id="Union_1" data-name="Union 1" d="M-750-3271v-50h57.5v50Zm11-30.04v.219a7.424,7.424,0,0,0,1.769,4.821,7.425,7.425,0,0,0-1.769,4.822v.219a7.45,7.45,0,0,0,7.45,7.45h7.67v2.631h5.26v-12.492h7.67a7.45,7.45,0,0,0,7.45-7.45v-.219a7.451,7.451,0,0,0-7.45-7.451h-7.67v-2.63h-5.26v2.63h-7.67A7.451,7.451,0,0,0-739-3301.04Zm7.45,12.271a2.191,2.191,0,0,1-2.191-2.192v-.219a2.191,2.191,0,0,1,2.191-2.192h7.671v4.6Zm12.929-9.861v-4.6h7.67a2.191,2.191,0,0,1,2.191,2.192v.219a2.191,2.191,0,0,1-2.191,2.192Zm-12.929,0a2.191,2.191,0,0,1-2.191-2.192v-.219a2.191,2.191,0,0,1,2.191-2.192h7.671v4.6Z" transform="translate(1141 3336)" stroke="rgba(0,0,0,0)" stroke-width="1" fill="url(#linear-gradient)"/>
    <g id="Group_14" data-name="Group 14" transform="translate(458.5 20)">
      <path id="Path_64" data-name="Path 64" d="M811.3,470.856a4.045,4.045,0,0,1,1.147,1.461,4.141,4.141,0,0,1,.369,1.72,4.567,4.567,0,0,1-1.748,3.837,8.025,8.025,0,0,1-5,1.352H799.13v-17.7H805.6a9.581,9.581,0,0,1,3.564.587,4.762,4.762,0,0,1,2.2,1.639,4.193,4.193,0,0,1,.737,2.471,3.767,3.767,0,0,1-.683,2.171,4.2,4.2,0,0,1-2.048,1.516A4.957,4.957,0,0,1,811.3,470.856Zm-8.4-6.268v4.124h2.18q3.035,0,3.036-2.158a1.713,1.713,0,0,0-.676-1.461,3.262,3.262,0,0,0-1.973-.505Zm5.2,10.91a2.057,2.057,0,0,0,.723-1.652,1.958,1.958,0,0,0-.752-1.612,3.616,3.616,0,0,0-2.281-.6H802.9v4.479h2.782A3.749,3.749,0,0,0,808.1,475.5Z" transform="translate(-799.13 -461.147)" fill="#fff"/>
      <path id="Path_65" data-name="Path 65" d="M871.72,476.059h8.193v3.168H867.951v-17.7h11.825v3.141H871.72v3.987h6.964l-.444,3.113h-6.52Z" transform="translate(-850.746 -461.147)" fill="#fff"/>
      <path id="Path_66" data-name="Path 66" d="M934.312,475.895h8.139v3.332H930.543v-17.7h3.769Z" transform="translate(-897.69 -461.147)" fill="#fff"/>
      <path id="Path_67" data-name="Path 67" d="M986.98,477.287a7.509,7.509,0,0,1-2.99-3.263,11,11,0,0,1-1.011-4.848,9.851,9.851,0,0,1,1.229-5.121A7.7,7.7,0,0,1,987.471,461a10.137,10.137,0,0,1,4.52-1,9.3,9.3,0,0,1,4.82,1.174,7.439,7.439,0,0,1,2.977,3.263,11.143,11.143,0,0,1,1,4.848,9.944,9.944,0,0,1-1.215,5.121,7.616,7.616,0,0,1-3.25,3.059,10.138,10.138,0,0,1-4.52,1A9.291,9.291,0,0,1,986.98,477.287Zm7.565-2.717a4.367,4.367,0,0,0,1.693-2.076,8.286,8.286,0,0,0,.56-3.182,7.348,7.348,0,0,0-1.229-4.52,4.211,4.211,0,0,0-3.578-1.625,4.516,4.516,0,0,0-3.742,1.6,6.808,6.808,0,0,0-1.284,4.383,7.347,7.347,0,0,0,1.229,4.52,4.24,4.24,0,0,0,3.6,1.625A4.993,4.993,0,0,0,994.545,474.57Z" transform="translate(-937.017 -460)" fill="#fff"/>
      <path id="Path_68" data-name="Path 68" d="M1079.766,467.893v8.848a16.319,16.319,0,0,1-3.427,1.325,13.526,13.526,0,0,1-3.264.4q-4.452,0-6.527-2.471a10.053,10.053,0,0,1-2.075-6.677,10.746,10.746,0,0,1,1.174-5.312,7.139,7.139,0,0,1,3.168-3.045,10.358,10.358,0,0,1,4.534-.956,11.927,11.927,0,0,1,3.2.423,10.311,10.311,0,0,1,2.813,1.243l-1.588,2.758a8.258,8.258,0,0,0-4.244-1.229,4.626,4.626,0,0,0-3.806,1.543,6.813,6.813,0,0,0-1.259,4.41,7.2,7.2,0,0,0,1.182,4.52,4.489,4.489,0,0,0,3.741,1.488,7.422,7.422,0,0,0,2.615-.437v-3.687h-3.769l.43-3.141Z" transform="translate(-998.137 -460)" fill="#fff"/>
      <path id="Path_69" data-name="Path 69" d="M1141.445,477.287a7.51,7.51,0,0,1-2.99-3.263,11,11,0,0,1-1.011-4.848,9.854,9.854,0,0,1,1.229-5.121,7.7,7.7,0,0,1,3.264-3.059,10.137,10.137,0,0,1,4.52-1,9.3,9.3,0,0,1,4.82,1.174,7.436,7.436,0,0,1,2.977,3.263,11.144,11.144,0,0,1,1,4.848,9.942,9.942,0,0,1-1.215,5.121,7.616,7.616,0,0,1-3.25,3.059,10.14,10.14,0,0,1-4.52,1A9.291,9.291,0,0,1,1141.445,477.287Zm7.565-2.717a4.367,4.367,0,0,0,1.693-2.076,8.284,8.284,0,0,0,.56-3.182,7.346,7.346,0,0,0-1.229-4.52,4.211,4.211,0,0,0-3.578-1.625,4.515,4.515,0,0,0-3.741,1.6,6.807,6.807,0,0,0-1.284,4.383,7.346,7.346,0,0,0,1.229,4.52,4.24,4.24,0,0,0,3.6,1.625A4.993,4.993,0,0,0,1149.01,474.57Z" transform="translate(-1052.865 -460)" fill="#fff"/>
      <path id="Path_70" data-name="Path 70" d="M1224.4,478.612a5.919,5.919,0,0,1-2.5-2.7,9.279,9.279,0,0,1-.779-3.892V461.53h3.769v10.022a5.96,5.96,0,0,0,.926,3.564,3.735,3.735,0,0,0,3.227,1.27,3.519,3.519,0,0,0,3.087-1.27,5.575,5.575,0,0,0,.9-3.291v-10.3h3.769v10.4a8.388,8.388,0,0,1-1.038,4.41,6.084,6.084,0,0,1-2.826,2.485,10.289,10.289,0,0,1-4.138.779A8.687,8.687,0,0,1,1224.4,478.612Z" transform="translate(-1115.625 -461.147)" fill="#fff"/>
      <path id="Path_71" data-name="Path 71" d="M1314.031,479.008v.219H1309.7l-4.445-6.445h-1.49v6.445h-3.769v-17.7h5.926a9.363,9.363,0,0,1,3.919.723,5.194,5.194,0,0,1,2.335,1.966,5.288,5.288,0,0,1,.765,2.827,5.529,5.529,0,0,1-.928,3.209,5.453,5.453,0,0,1-2.731,2.008Zm-10.269-9.149h1.7a4.5,4.5,0,0,0,2.58-.628,2.345,2.345,0,0,0,.907-2.076,2.238,2.238,0,0,0-.809-1.885,3.606,3.606,0,0,0-2.26-.628h-2.12Z" transform="translate(-1174.778 -461.147)" fill="#fff"/>
    </g>
    <g id="Group_15" data-name="Group 15" transform="translate(458.5 43.336)">
      <path id="Path_72" data-name="Path 72" d="M808.251,555.389a4.715,4.715,0,0,1,2.1,1.812,5.041,5.041,0,0,1,.69,2.65,5.562,5.562,0,0,1-.724,2.847,4.887,4.887,0,0,1-2.182,1.947,8.137,8.137,0,0,1-3.554.7h-2.045V570.7h-3.4V554.723h5.6A8.228,8.228,0,0,1,808.251,555.389Zm-1.644,6.57a2.277,2.277,0,0,0,.831-2.009,2.2,2.2,0,0,0-.742-1.812,3.2,3.2,0,0,0-2.075-.6h-2.088v5h1.711A4.1,4.1,0,0,0,806.607,561.958Z" transform="translate(-799.13 -554.378)" fill="#fff"/>
      <path id="Path_73" data-name="Path 73" d="M870.569,570.5v.2h-3.912l-4.012-5.818H861.3V570.7h-3.4V554.723h5.349a8.453,8.453,0,0,1,3.538.653,4.69,4.69,0,0,1,2.108,1.775,4.772,4.772,0,0,1,.69,2.552,4.99,4.99,0,0,1-.838,2.9,4.919,4.919,0,0,1-2.465,1.812Zm-9.269-8.258h1.536a4.058,4.058,0,0,0,2.329-.567,2.117,2.117,0,0,0,.819-1.874,2.021,2.021,0,0,0-.73-1.7,3.255,3.255,0,0,0-2.04-.567H861.3Z" transform="translate(-843.206 -554.378)" fill="#fff"/>
      <path id="Path_74" data-name="Path 74" d="M917.911,568.947a6.776,6.776,0,0,1-2.7-2.945,9.935,9.935,0,0,1-.912-4.376A8.894,8.894,0,0,1,915.409,557a6.952,6.952,0,0,1,2.946-2.761,9.151,9.151,0,0,1,4.08-.9,8.394,8.394,0,0,1,4.351,1.06,6.713,6.713,0,0,1,2.687,2.946,10.057,10.057,0,0,1,.9,4.375,8.976,8.976,0,0,1-1.1,4.622,6.874,6.874,0,0,1-2.934,2.761,9.15,9.15,0,0,1-4.08.9A8.387,8.387,0,0,1,917.911,568.947Zm6.828-2.453a3.944,3.944,0,0,0,1.528-1.873,7.477,7.477,0,0,0,.505-2.872,6.632,6.632,0,0,0-1.109-4.08,3.8,3.8,0,0,0-3.229-1.467,4.076,4.076,0,0,0-3.377,1.442A6.144,6.144,0,0,0,917.9,561.6a6.631,6.631,0,0,0,1.109,4.08,3.827,3.827,0,0,0,3.254,1.467A4.507,4.507,0,0,0,924.74,566.495Z" transform="translate(-885.508 -553.343)" fill="#fff"/>
      <path id="Path_75" data-name="Path 75" d="M1000.333,555.389a4.714,4.714,0,0,1,2.1,1.812,5.039,5.039,0,0,1,.691,2.65,5.564,5.564,0,0,1-.724,2.847,4.89,4.89,0,0,1-2.182,1.947,8.14,8.14,0,0,1-3.554.7h-2.045V570.7h-3.4V554.723h5.6A8.23,8.23,0,0,1,1000.333,555.389Zm-1.644,6.57a2.277,2.277,0,0,0,.831-2.009,2.2,2.2,0,0,0-.742-1.812,3.2,3.2,0,0,0-2.075-.6h-2.088v5h1.71A4.1,4.1,0,0,0,998.689,561.958Z" transform="translate(-943.191 -554.378)" fill="#fff"/>
      <path id="Path_76" data-name="Path 76" d="M1053.382,567.838h7.4V570.7h-10.8V554.723h10.674v2.835h-7.272v3.6h6.286l-.4,2.81h-5.885Z" transform="translate(-987.267 -554.378)" fill="#fff"/>
      <path id="Path_77" data-name="Path 77" d="M1119.15,570.5v.2h-3.912l-4.012-5.818h-1.346V570.7h-3.4V554.723h5.349a8.453,8.453,0,0,1,3.537.653,4.689,4.689,0,0,1,2.108,1.775,4.775,4.775,0,0,1,.69,2.552,4.988,4.988,0,0,1-.838,2.9,4.919,4.919,0,0,1-2.465,1.812Zm-9.269-8.258h1.536a4.059,4.059,0,0,0,2.329-.567,2.116,2.116,0,0,0,.818-1.874,2.02,2.02,0,0,0-.73-1.7,3.254,3.254,0,0,0-2.04-.567h-1.914Z" transform="translate(-1029.642 -554.378)" fill="#fff"/>
      <path id="Path_78" data-name="Path 78" d="M1173.112,554.723v2.983h-5.078V570.7h-3.4V557.706h-5.1v-2.983Z" transform="translate(-1069.429 -554.378)" fill="#fff"/>
      <path id="Path_79" data-name="Path 79" d="M1224.51,570.7V554.723h3.4V570.7Z" transform="translate(-1118.165 -554.378)" fill="#fff"/>
      <path id="Path_80" data-name="Path 80" d="M1257.59,567.838h7.4V570.7h-10.8V554.723h10.674v2.835h-7.273v3.6h6.286l-.4,2.81h-5.886Z" transform="translate(-1140.423 -554.378)" fill="#fff"/>
      <path id="Path_81" data-name="Path 81" d="M1305.462,568.084l1.578-2.44a8.361,8.361,0,0,0,4.487,1.454,4.589,4.589,0,0,0,2.206-.443,1.434,1.434,0,0,0,.8-1.331,1.5,1.5,0,0,0-.259-.9,2.537,2.537,0,0,0-.912-.69q-.653-.332-1.96-.85l-.567-.222a17.985,17.985,0,0,1-2.539-1.183,4.474,4.474,0,0,1-1.529-1.454,4.091,4.091,0,0,1-.567-2.243,3.688,3.688,0,0,1,.863-2.5,5.04,5.04,0,0,1,2.219-1.467,8.776,8.776,0,0,1,2.884-.468,9.568,9.568,0,0,1,2.847.456,10.84,10.84,0,0,1,2.8,1.343l-1.593,2.416a11.55,11.55,0,0,0-2.083-1.035,5.844,5.844,0,0,0-1.96-.32,3.263,3.263,0,0,0-1.776.394,1.213,1.213,0,0,0-.6,1.06,1.235,1.235,0,0,0,.245.752,2.563,2.563,0,0,0,.882.666,16.671,16.671,0,0,0,1.838.776l.539.2a21.963,21.963,0,0,1,2.536,1.109,4.6,4.6,0,0,1,1.63,1.479,4.882,4.882,0,0,1-.177,5.189,5,5,0,0,1-2.28,1.639,9.236,9.236,0,0,1-3.266.542A10.243,10.243,0,0,1,1305.462,568.084Z" transform="translate(-1178.879 -553.343)" fill="#fff"/>
    </g>
  </g>
</svg>
